
<svg version="1.0" xmlns="http://www.w3.org/2000/svg"
 width="905.000000pt" height="1280.000000pt" viewBox="0 0 905.000000 1280.000000"
 preserveAspectRatio="xMidYMid meet">
<g transform="translate(0.000000,1280.000000) scale(0.100000,-0.100000)"
fill="#000000" stroke="none">
<path d="M4396 10423 c-83 -136 -516 -901 -675 -1191 -864 -1582 -1414 -2807
-1594 -3552 -55 -225 -62 -282 -61 -510 0 -235 16 -356 73 -576 241 -915 1040
-1617 1979 -1738 162 -21 462 -21 624 0 344 44 713 183 1010 381 70 46 127 75
184 94 138 44 257 125 351 238 68 82 154 256 187 376 13 50 54 152 91 228 72
150 151 376 184 530 50 230 64 517 36 713 -99 701 -669 2027 -1618 3764 -281
515 -723 1290 -736 1290 -4 0 -19 -21 -35 -47z"/>
</g>
</svg>
